<svg width="398px" height="154px" viewBox="0 0 398 154" version="1.1" xmlns="http://www.w3.org/2000/svg" xmlns:xlink="http://www.w3.org/1999/xlink">
    <defs>
        <filter x="-20.1%" y="-70.9%" width="140.1%" height="265.8%" filterUnits="objectBoundingBox" id="filter-1">
            <feOffset dx="0" dy="10" in="SourceAlpha" result="shadowOffsetOuter1"></feOffset>
            <feGaussianBlur stdDeviation="20" in="shadowOffsetOuter1" result="shadowBlurOuter1"></feGaussianBlur>
            <feColorMatrix values="0 0 0 0 0   0 0 0 0 0   0 0 0 0 0  0 0 0 0.231997283 0" type="matrix" in="shadowBlurOuter1" result="shadowMatrixOuter1"></feColorMatrix>
            <feMerge>
                <feMergeNode in="shadowMatrixOuter1"></feMergeNode>
                <feMergeNode in="SourceGraphic"></feMergeNode>
            </feMerge>
        </filter>
    </defs>
    <g stroke="none" stroke-width="1" fill="none" fill-rule="evenodd">
        <g transform="translate(-173.000000, -266.000000)" fill="#FFFFFF">
            <g filter="url(#filter-1)" transform="translate(210.000000, 293.000000)">
                <path d="M214.957454,75.2726086 C213.197241,75.2698011 211.56236,74.273129 211.56236,72.3583955 L211.56236,66.454166 L213.704138,66.454166 C214.091274,66.454166 214.798701,66.2660617 214.798701,65.2806197 C214.798701,64.2979852 214.091274,64.0958433 213.782122,64.0958433 L211.56236,64.0958433 L211.56236,62.1614571 L211.56236,62.150227 C211.523368,60.8250742 210.272837,59.7273311 209.019521,59.6655656 C207.685435,59.5953774 206.368061,60.7661162 206.301217,62.150227 C206.298432,62.197955 206.298432,62.9728325 206.301217,64.0958433 L205.68013,64.0958433 C205.315275,64.0958433 204.585567,64.2979852 204.585567,65.2665821 C204.585567,66.2323714 205.237291,66.454166 205.604931,66.454166 L206.306788,66.454166 C206.317928,69.6687845 206.331854,73.5150967 206.334639,73.5403644 C206.440475,76.2131302 208.988884,78.060483 211.069389,78.060483 C213.587162,78.060483 214.949099,75.2782237 214.949099,75.2782237 L214.957454,75.2726086 Z M144.7996,75.2726086 C143.039387,75.2698011 141.407291,74.273129 141.407291,72.3583955 L141.407291,66.454166 L143.549069,66.454166 C143.933419,66.454166 144.643632,66.2660617 144.643632,65.2806197 C144.643632,64.2979852 143.933419,64.0958433 143.627053,64.0958433 L141.407291,64.0958433 L141.407291,62.1614571 L141.407291,62.150227 C141.365514,60.8250742 140.117768,59.7273311 138.861667,59.6655656 C137.527581,59.5953774 136.212992,60.7661162 136.146148,62.150227 C136.143363,62.197955 136.146148,62.9728325 136.146148,64.0958433 L135.52506,64.0958433 C135.162991,64.0958433 134.427712,64.2979852 134.427712,65.2665821 C134.427712,66.2323714 135.079437,66.454166 135.447076,66.454166 L136.151718,66.454166 C136.162859,69.6687845 136.174,73.5150967 136.17957,73.5403644 C136.28262,76.2131302 138.833815,78.060483 140.911535,78.060483 C143.432093,78.060483 144.79403,75.2782237 144.79403,75.2782237 L144.7996,75.2726086 Z M158.190587,73.394373 C158.190587,73.394373 157.917643,78.0548679 152.227587,78.0548679 C149.002387,78.0548679 145.108751,75.5814366 145.108751,70.6963395 C145.108751,66.3559026 148.099999,63.0710959 152.18581,63.0710959 C154.661806,63.0710959 158.839526,64.2979852 158.839526,68.0235737 C158.839526,71.7463546 155.009949,72.0551826 150.445093,72.0551826 C150.445093,72.0551826 151.119099,74.5089612 154.249604,74.5089612 C157.382894,74.5089612 158.190587,73.394373 158.190587,73.394373 L158.190587,73.394373 Z M150.149868,69.6631695 C150.135942,69.7810856 151.89894,69.6940523 152.010346,69.665977 C153.054776,69.4469899 153.809551,68.6468447 153.78727,67.4732984 C153.773344,66.3643252 152.533953,65.7073638 151.653847,66.2829069 C150.595491,66.9763661 150.311406,68.472778 150.149868,69.6631695 L150.149868,69.6631695 Z M168.882767,63.4838024 C167.325869,63.545568 166.557169,64.7163068 165.498813,66.1846434 C165.490458,66.2014886 165.501598,65.5080294 165.498813,65.4827617 C165.454251,64.1548014 164.234356,63.0542507 162.978255,62.9896776 C161.644169,62.9251045 160.32401,64.0930358 160.254381,65.4827617 L160.254381,69.2813458 L160.254381,75.6319721 L160.251596,75.6319721 C160.287803,76.9655474 161.510482,78.0660981 162.769369,78.1250561 C164.092314,78.1896292 165.398548,77.0441582 165.490458,75.674085 L165.501598,75.674085 L165.501598,69.244848 C165.576797,68.3015189 165.986214,67.11955 166.735418,67.1279725 C167.804915,67.1392026 166.704782,69.7305501 169.14457,69.7305501 C172.6455,69.7305501 173.01871,63.3125432 168.882767,63.4838024 L168.882767,63.4838024 Z M222.006662,59.9912387 C222.006662,58.5425547 220.84247,57.3690084 219.405334,57.3690084 C217.968198,57.3690084 216.806792,58.5425547 216.806792,59.9912387 C216.806792,61.4371151 217.968198,62.6078539 219.405334,62.6078539 C220.84247,62.6078539 222.006662,61.4371151 222.006662,59.9912387 L222.006662,59.9912387 Z M222.026158,66.5805048 C221.964884,65.2721971 220.93995,64.2390272 219.650427,64.1323411 C219.569658,64.121111 219.500029,64.1070734 219.42483,64.1070734 C218.260639,64.1070734 216.787296,65.1233982 216.787296,66.4120531 L216.792866,71.2859201 L216.787296,71.2859201 C216.804007,72.8075998 216.787296,75.5533613 216.787296,75.5842441 C216.851354,76.8981668 217.876288,77.9257217 219.165812,78.0352153 C219.243796,78.0408303 219.313424,78.0632905 219.385838,78.0632905 C220.5556,78.0632905 222.026158,77.0441582 222.026158,75.7583108 L222.017802,71.684589 L222.026158,71.684589 C222.006662,70.1629093 222.026158,66.6141951 222.026158,66.5805048 L222.026158,66.5805048 Z M270.223127,65.1655111 C270.225913,65.2918498 270.231483,75.2557634 270.223127,75.4494828 C270.156284,76.9037818 268.769281,78.1306712 267.371137,78.0548679 C266.245937,78.0015249 265.151375,77.1536517 264.831083,76.0390635 C264.301905,76.9065894 263.140498,77.5803959 262.352302,77.7881529 C260.959728,78.1531314 259.118746,77.9509894 257.898852,77.1620743 C253.570733,74.3573548 253.969009,63.0261755 260.282938,63.0261755 C262.575114,63.0261755 264.034531,64.5899681 264.691825,65.522067 C264.691825,65.4827617 264.711321,65.2665821 264.714107,65.1655111 C264.78095,63.7084046 266.165168,62.4843227 267.563312,62.5545109 C268.883472,62.619084 270.18135,63.7701701 270.223127,65.1655111 L270.223127,65.1655111 Z M262.213044,74.2843591 C263.622329,74.2618989 264.329756,72.8356751 264.329756,70.5110427 C264.329756,68.1864102 263.438509,66.762994 262.213044,66.7377263 L262.213044,66.7349187 C262.207474,66.7349187 262.201904,66.7377263 262.196334,66.7377263 C262.190763,66.7377263 262.187978,66.7349187 262.176838,66.7349187 L262.176838,66.7377263 C260.956943,66.762994 260.062911,68.1864102 260.062911,70.5110427 C260.062911,72.8356751 260.770338,74.2618989 262.176838,74.2843591 L262.176838,74.2871666 L262.196334,74.2871666 L262.213044,74.2871666 L262.213044,74.2843591 L262.213044,74.2843591 Z M203.248696,65.1655111 C203.254266,65.2918498 203.254266,75.2557634 203.248696,75.4494828 C203.179067,76.9037818 201.792064,78.1306712 200.39392,78.0548679 C199.271506,78.0015249 198.176943,77.1536517 197.853866,76.0390635 C197.324688,76.9065894 196.168852,77.5803959 195.377871,77.7881529 C193.982512,78.1531314 192.144315,77.9509894 190.92442,77.1620743 C186.596302,74.3573548 186.994578,63.0261755 193.308506,63.0261755 C195.603467,63.0261755 197.057314,64.5899681 197.720179,65.522067 C197.720179,65.4827617 197.73132,65.2665821 197.734105,65.1655111 C197.803734,63.7084046 199.190737,62.4843227 200.591666,62.5545109 C201.90347,62.619084 203.204134,63.7701701 203.248696,65.1655111 L203.248696,65.1655111 Z M195.235828,74.2843591 C196.647898,74.2618989 197.355325,72.8356751 197.355325,70.5110427 C197.355325,68.1864102 196.458508,66.762994 195.235828,66.7377263 L195.235828,66.7349187 C195.233043,66.7349187 195.227473,66.7377263 195.219117,66.7377263 C195.216332,66.7377263 195.213547,66.7349187 195.202406,66.7349187 L195.202406,66.7377263 C193.982512,66.762994 193.08848,68.1864102 193.08848,70.5110427 C193.08848,72.8356751 193.793122,74.2618989 195.202406,74.2843591 L195.202406,74.2871666 L195.219117,74.2871666 L195.235828,74.2871666 L195.235828,74.2843591 L195.235828,74.2843591 Z M231.139159,63.0037153 C235.263962,63.0037153 238.606138,66.3727478 238.606138,70.5306954 C238.606138,74.6914505 235.263962,78.060483 231.139159,78.060483 C227.014356,78.060483 223.672179,74.6914505 223.672179,70.5306954 C223.672179,66.3727478 227.014356,63.0037153 231.139159,63.0037153 L231.139159,63.0037153 Z M231.192077,74.8627097 C232.601361,74.8346344 233.306003,73.2006536 233.306003,70.5306954 C233.306003,67.8635446 232.414756,66.2323714 231.192077,66.2014886 L231.192077,66.1986811 C231.186506,66.1986811 231.183721,66.1986811 231.178151,66.2014886 C231.169795,66.1986811 231.164225,66.1986811 231.164225,66.1986811 L231.164225,66.2014886 C229.93876,66.2323714 229.044728,67.8635446 229.044728,70.5306954 C229.044728,73.2006536 229.752156,74.8346344 231.164225,74.8627097 L231.164225,74.8655172 L231.178151,74.8655172 L231.192077,74.8655172 L231.192077,74.8627097 L231.192077,74.8627097 Z M129.876782,63.6662916 C127.150123,63.6662916 125.537523,65.979694 125.077974,66.7377263 L125.064048,66.7461489 C125.061263,65.9825015 125.061263,65.3788832 125.061263,65.3480004 C125.019486,64.0172325 123.799591,63.0205604 122.540705,62.9559873 C121.209404,62.8914142 119.883674,63.961082 119.814046,65.3480004 C119.811261,65.5248746 119.811261,75.466328 119.814046,75.6010893 C119.858608,76.9318571 121.081288,78.0324077 122.337389,78.0941733 C123.671474,78.161554 124.994419,76.9880077 125.061263,75.6010893 C125.064048,75.5000183 125.064048,72.2573245 125.064048,69.4610275 L125.083544,69.4441824 C125.311926,68.3745146 125.910733,67.2767715 126.815905,67.2767715 C127.988452,67.2767715 128.049726,68.5935017 128.058081,68.5935017 L128.04694,75.6010893 C128.085933,76.9318571 129.305827,78.0324077 130.561928,78.0941733 C131.901584,78.161554 133.224529,76.9880077 133.288587,75.6010893 L133.285802,71.940074 C133.285802,68.1723726 133.672938,63.6494465 129.876782,63.6662916 L129.876782,63.6662916 Z M250.150573,63.6662916 C247.421128,63.6662916 245.808528,65.979694 245.348979,66.7377263 L245.335053,66.7461489 C245.335053,65.9825015 245.332268,65.3788832 245.332268,65.3480004 C245.290491,64.0172325 244.070597,63.0205604 242.81171,62.9559873 C241.48041,62.8914142 240.15468,63.961082 240.087836,65.3480004 C240.085051,65.5248746 240.085051,75.466328 240.087836,75.6010893 C240.126828,76.9318571 241.352293,78.0324077 242.608394,78.0941733 C243.94248,78.161554 245.262639,76.9880077 245.332268,75.6010893 C245.335053,75.5000183 245.337838,72.2573245 245.335053,69.4610275 L245.354549,69.4441824 C245.580146,68.3745146 246.181738,67.2767715 247.086911,67.2767715 C248.253887,67.2767715 248.323516,68.5935017 248.329086,68.5935017 L248.317946,75.6010893 C248.356938,76.9318571 249.579617,78.0324077 250.832934,78.0941733 C252.172589,78.161554 253.492749,76.9880077 253.562378,75.6010893 L253.554022,71.940074 C253.554022,68.1723726 253.938373,63.6494465 250.150573,63.6662916 L250.150573,63.6662916 Z M183.120438,63.6662916 C180.390994,63.6662916 178.778394,65.979694 178.32163,66.7377263 L178.304919,66.7461489 L178.304919,65.3480004 C178.260357,64.0172325 177.040462,63.0205604 175.784361,62.9559873 C174.450276,62.8914142 173.127331,63.961082 173.057702,65.3480004 C173.054917,65.5248746 173.054917,75.466328 173.057702,75.6010893 C173.099479,76.9318571 174.322159,78.0324077 175.575475,78.0941733 C176.912346,78.161554 178.23529,76.9880077 178.304919,75.6010893 C178.304919,75.5000183 178.307704,72.2573245 178.304919,69.4610275 L178.3272,69.4441824 C178.552797,68.3745146 179.154389,67.2767715 180.056777,67.2767715 C181.226538,67.2767715 181.293382,68.5935017 181.296167,68.5935017 L181.287812,75.6010893 C181.326804,76.9318571 182.549483,78.0324077 183.805585,78.0941733 C185.142455,78.161554 186.4654,76.9880077 186.529458,75.6010893 L186.523888,71.940074 C186.523888,68.1723726 186.911024,63.6494465 183.120438,63.6662916 L183.120438,63.6662916 Z M278.013184,75.466328 C277.904563,75.0171236 277.84329,74.5791494 277.818223,74.1327526 C277.815438,73.9979913 277.823794,58.1438859 277.818223,57.9585891 C277.776446,56.6250137 276.556552,55.5272706 275.297665,55.45989 C273.960795,55.3953169 272.640635,56.5660557 272.571006,57.9585891 C272.565436,58.1382708 272.571006,72.414546 272.571006,72.414546 C272.584932,73.6105526 272.470741,74.8374419 273.030556,75.9379925 C273.623792,77.1648819 275.091564,78.1054034 276.865703,78.1054034 C278.405889,78.1054034 279.316633,76.8757066 279.316633,76.8757066 C279.316633,76.8757066 278.41703,76.5556485 278.013184,75.466328 L278.013184,75.466328 Z M111.751045,58.0989654 C111.862451,58.5509773 111.918154,58.9889515 111.951576,59.4325408 C111.951576,59.5673021 111.93765,75.4214075 111.946005,75.6123194 C111.987783,76.9402797 113.207677,78.0380228 114.463778,78.108211 C115.803434,78.1727841 117.123594,77.0020453 117.190437,75.6123194 C117.198793,75.4298301 117.190437,61.1535549 117.190437,61.1535549 C117.182082,59.9547408 117.296273,58.7278515 116.733673,57.6273009 C116.140437,56.4032191 114.675449,55.45989 112.901311,55.45989 C111.358339,55.45989 110.447596,56.6923944 110.447596,56.6923944 C110.447596,56.6923944 111.347199,57.0096449 111.751045,58.0989654 L111.751045,58.0989654 Z M83.3174788,48.1603196 C77.6636303,41.9107643 75.8950619,31.517299 75.5497036,24.6107824 C75.2489078,18.6447874 75.5691997,8.30747264 80.234321,5.30061113 C78.6718535,3.32130454 75.5886957,2.52677437 73.2491722,2.52677437 C67.9880294,2.52677437 65.4535456,6.05583592 63.6571257,8.59664793 C63.0611042,9.433291 54.2154772,21.7358747 54.2154772,21.7358747 C54.2154772,21.7358747 46.7763494,10.1323652 45.8628212,8.73983181 C44.5983644,6.81667576 42.2337746,3.28480669 38.07555,2.66995826 C36.2847005,2.40605071 31.6418603,2.16741091 29.1101616,5.66558965 C33.4689168,9.18061356 33.360296,18.1338174 32.413346,24.2429964 C29.5752812,42.5873783 21.8297872,44.2775096 21.8297872,44.2775096 C25.7958366,55.0752588 36.011756,50.8078176 38.8999535,42.1999396 C40.7687872,36.6045381 41.9747559,29.5211473 42.2532706,23.6449931 L53.4634875,40.9814728 C53.4634875,40.9814728 66.1554026,23.7011436 66.1554026,23.7151813 C64.0665423,54.2751136 74.477422,62.9363346 83.5820677,62.9363346 C92.6922838,62.9363346 95.7977227,54.5362136 95.7977227,54.5362136 C90.8707976,54.2386157 86.5566048,51.7427241 83.3174788,48.1603196 L83.3174788,48.1603196 Z M291.125656,41.0881588 L284.137722,41.0881588 C284.650189,41.0881588 289.822207,36.694379 291.535073,35.2288498 C296.027515,31.3881528 304.104441,25.8432868 301.748207,18.6616325 L301.750992,18.712168 C301.322079,17.002384 300.01306,16.016942 300.01306,16.016942 C300.01306,16.016942 299.52566,17.412283 297.865712,18.035554 C297.191706,18.2011981 296.509345,18.3275368 295.829769,18.3696497 C295.275525,18.3780723 276.294748,18.3696497 276.294748,18.3696497 C273.729628,18.3640346 271.573924,20.4444122 271.537717,22.8981909 C271.509865,25.3772373 273.540238,27.3649665 276.141565,27.3986568 L287.21531,27.468845 C282.082284,30.3549828 275.95496,33.7717433 272.83838,38.9909361 C271.064242,41.9865675 269.161986,46.602142 269.883339,50.1452412 C272.342624,47.9469475 278.80138,45.818842 283.71438,46.8520119 C285.555362,47.2422582 287.510535,48.1855873 289.098069,49.190682 C298.319691,55.0022631 303.859348,43.6345859 299.453246,38.6203425 C299.453246,38.6203425 296.938258,41.0881588 291.125656,41.0881588 L291.125656,41.0881588 Z M254.824049,50.5888305 C247.624444,50.5888305 238.954281,45.0636172 238.954281,34.1760272 C238.954281,24.5012888 245.607998,17.1736432 254.723784,17.1736432 C260.24116,17.1736432 269.551907,19.9109821 269.551907,28.2128397 C269.551907,36.5175048 261.018216,37.2081564 250.844074,37.2081564 C250.844074,37.2081564 252.342483,42.6744117 259.324847,42.6744117 C266.304425,42.6744117 268.10363,40.1925577 268.10363,40.1925577 C268.10363,40.1925577 267.499254,50.5888305 254.824049,50.5888305 Z M250.189565,31.87947 C250.150573,32.134955 254.07763,31.9412356 254.325508,31.8878926 C256.662246,31.3909603 258.34169,29.6109881 258.294343,26.9943729 C258.252565,24.5209415 255.50084,23.0582199 253.534526,24.3412598 C251.169936,25.8882072 250.543278,29.2263569 250.189565,31.87947 L250.189565,31.87947 Z M219.020984,40.1925577 C219.020984,40.1925577 218.411037,50.5888305 205.735832,50.5888305 C198.536227,50.5888305 189.866065,45.0636172 189.866065,34.1760272 C189.866065,24.5012888 196.522566,17.1736432 205.638352,17.1736432 C211.158514,17.1736432 220.46926,19.9109821 220.46926,28.2128397 C220.46926,36.5175048 211.93557,37.2081564 201.761428,37.2081564 C201.761428,37.2081564 203.257052,42.6744117 210.2422,42.6744117 C217.221779,42.6744117 219.020984,40.1925577 219.020984,40.1925577 L219.020984,40.1925577 Z M201.101348,31.87947 C201.065141,32.134955 204.994983,31.9412356 205.242861,31.8878926 C207.5796,31.3909603 209.253473,29.6109881 209.208911,26.9943729 C209.169919,24.5209415 206.418193,23.0582199 204.45188,24.3412598 C202.08729,25.8882072 201.457847,29.2263569 201.101348,31.87947 L201.101348,31.87947 Z M187.097628,44.4206935 C188.044578,46.964313 190.144579,47.7139228 190.144579,47.7139228 C190.144579,47.7139228 188.013942,50.591638 184.421102,50.591638 C180.276803,50.591638 176.845502,48.3849217 175.455714,45.5268592 C175.361019,45.3415624 175.280249,45.1562656 175.202265,44.9709688 C174.659162,47.5089733 171.275208,49.6314638 169.12786,50.1985842 C166.01685,51.0127671 161.908758,50.5551402 159.18767,48.7976282 C149.523209,42.5396504 150.414456,17.2494464 164.504515,17.2494464 C169.626401,17.2494464 172.876667,20.7476251 174.352795,22.8195801 L174.380647,6.18498216 C174.380647,2.76541418 177.124017,-7.10542736e-15 180.516326,-7.10542736e-15 C183.903065,-7.10542736e-15 186.646435,2.76541418 186.646435,6.18498216 L186.640864,41.3043384 C186.707708,42.345931 186.84418,43.3762934 187.097628,44.4206935 L187.097628,44.4206935 Z M168.810353,42.3768138 C171.960354,42.3290858 173.536747,39.1453501 173.536747,33.9570401 C173.536747,28.76873 171.539797,25.5934169 168.810353,25.5344588 L168.810353,25.5288438 C168.799212,25.5288438 168.788072,25.5344588 168.779716,25.5344588 C168.76579,25.5344588 168.757435,25.5288438 168.740724,25.5288438 L168.740724,25.5344588 C166.014065,25.5934169 164.017115,28.76873 164.017115,33.9570401 C164.017115,39.1453501 165.593508,42.3290858 168.740724,42.3768138 L168.740724,42.3824288 C168.757435,42.3824288 168.76579,42.3796213 168.779716,42.3796213 C168.788072,42.3796213 168.799212,42.3824288 168.810353,42.3824288 L168.810353,42.3768138 L168.810353,42.3768138 Z M99.0869814,16.9799238 C108.294678,16.9799238 115.758872,24.5040964 115.758872,33.7857809 C115.758872,43.0646579 108.294678,50.5888305 99.0869814,50.5888305 C89.8792852,50.5888305 82.4150911,43.0646579 82.4150911,33.7857809 C82.4150911,24.5040964 89.8792852,16.9799238 99.0869814,16.9799238 L99.0869814,16.9799238 Z M99.2095279,43.4520967 C102.359529,43.3903311 103.935922,39.7461609 103.935922,33.7857809 C103.935922,27.831016 101.930617,24.1812308 99.2095279,24.1138501 L99.173321,24.1138501 L99.1371141,24.1138501 C96.4132402,24.1812308 94.4135046,27.831016 94.4135046,33.7857809 C94.4135046,39.7461609 95.9898979,43.3903311 99.1371141,43.4520967 L99.1371141,43.4577117 C99.1482546,43.4577117 99.1593952,43.4549042 99.173321,43.4549042 C99.1844616,43.4549042 99.1956021,43.4577117 99.2095279,43.4577117 L99.2095279,43.4520967 L99.2095279,43.4520967 Z M236.18863,44.4206935 C235.937967,43.3762934 235.801495,42.345931 235.737437,41.3043384 L235.745792,6.18498216 C235.745792,2.76541418 232.999637,-7.10542736e-15 229.610113,-7.10542736e-15 C226.220589,-7.10542736e-15 223.474434,2.76541418 223.474434,6.18498216 L223.482789,37.2895747 C223.513426,40.0858717 223.240482,42.9495493 224.552286,45.5268592 C225.942074,48.3849217 229.37059,50.591638 233.512104,50.591638 C237.107729,50.591638 239.238366,47.7139228 239.238366,47.7139228 C239.238366,47.7139228 237.138366,46.964313 236.18863,44.4206935 L236.18863,44.4206935 Z M149.598408,44.4206935 C149.347745,43.3762934 149.216843,42.345931 149.144429,41.3043384 C149.130504,39.805119 149.130504,37.6966661 149.130504,35.7566649 C149.322679,29.0635204 150.559284,17.2859442 141.549333,17.2859442 C135.466572,17.2859442 131.862592,22.4489866 130.840443,24.1335028 C130.695615,19.4308949 127.013651,16.0197495 121.387654,16.0197495 C117.80317,16.0197495 115.669747,18.8974648 115.669747,18.8974648 C115.669747,18.8974648 119.170677,20.1187391 119.170677,24.8634598 C119.209669,28.2577601 119.162321,44.7828645 119.170677,44.8558602 C119.307149,47.7813034 121.337521,50.5298724 124.969353,50.5298724 C128.601185,50.5298724 130.851584,47.7167303 130.851584,44.8474376 L130.851584,30.1893387 C131.35848,27.7945181 132.700921,25.3463545 134.711797,25.3463545 C137.329836,25.3463545 137.483019,28.2774128 137.491374,28.2774128 L137.483019,42.4694622 C137.491374,42.9327041 137.549862,43.3762934 137.627846,43.8086526 C137.755963,44.5498397 137.978775,45.2320688 138.299067,45.8693775 C139.694425,48.7246325 142.780368,50.591638 146.930238,50.591638 C150.514722,50.591638 152.645359,47.7139228 152.645359,47.7139228 C152.645359,47.7139228 150.545358,46.964313 149.598408,44.4206935 L149.598408,44.4206935 Z M263.928695,5.09846918 C263.739305,5.0900466 245.791817,5.0900466 245.621923,5.09846918 C243.652824,5.16023478 242.026299,6.99354996 241.934389,8.88301569 C241.836909,10.8903976 243.5637,12.8809343 245.621923,12.9791977 C245.811313,12.9848128 263.761586,12.9848128 263.928695,12.9791977 C265.895009,12.9230472 267.52432,11.0813094 267.61623,9.19465119 C267.71928,7.18726933 265.986919,5.19954016 263.928695,5.09846918 L263.928695,5.09846918 Z" id="Fill-1"></path>
                <path d="M295.454374,58.1394 C302.449602,64.3035997 316.08988,65.8425122 322.14852,56.9481677 C326.392347,50.7212716 322.993394,41.7471316 315.489574,40.3535608 C311.690418,39.6553504 308.005208,41.6274384 305.695699,44.642567 C304.244961,46.5462588 303.472345,48.9230238 301.97714,50.7640191 C300.156768,53.0153912 297.299758,53.9558377 294.545578,53.5967581 C293.183774,53.422918 291.032679,52.9583944 289.531915,51.5619738 C291.232781,54.09263 293.275487,56.2271586 295.454374,58.1394 Z" id="Path"></path>
                <path d="M34.4680851,51.5647115 C32.761976,54.0923072 30.7224254,56.2238085 28.5467195,58.1387401 C21.5472263,64.3024262 7.91224683,65.8440601 1.84638987,56.947607 C-2.39109609,50.7240793 1.01278608,41.7478374 8.51244157,40.3515331 C12.3108962,39.6590802 15.995425,41.6310038 18.2989501,44.6430316 C19.7605355,46.5465648 20.5302296,48.9259813 22.0223804,50.7639737 C23.8424154,53.0123086 26.696119,53.9526768 29.4525689,53.5993263 C30.8085644,53.4198015 32.970377,52.9581662 34.4680851,51.5647115 L34.4680851,51.5647115 Z" id="Path"></path>
            </g>
        </g>
    </g>
</svg>
